<svg width="512" height="512" viewBox="0 0 512 512" fill="none" xmlns="http://www.w3.org/2000/svg">
  <!-- Rounded square background -->
  <rect width="512" height="512" rx="96" fill="#8a8f5b"/>

  <!-- T -->
  <path d="M72 148h100v30H192v174h-40V178h-80v-30z" fill="#f2e8d5"/>
  <rect x="72" y="148" width="100" height="30" rx="4" fill="#f2e8d5"/>
  <rect x="97" y="148" width="50" height="204" rx="4" fill="#f2e8d5"/>

  <!-- C -->
  <path d="M256 130c-72 0-120 52-120 126s48 126 120 126c38 0 68-14 88-38l-28-24c-14 18-34 28-60 28c-50 0-80-38-80-92s30-92 80-92c26 0 46 10 60 28l28-24c-20-24-50-38-88-38z" fill="#f2e8d5"/>

  <!-- k -->
  <rect x="370" y="198" width="42" height="154" rx="4" fill="#f2e8d5"/>
  <path d="M412 280l68-82h-48l-44 56v-56h0v82l44 72h48l-68-72z" fill="#f2e8d5"/>
</svg>
